<?xml version="1.0" encoding="iso-8859-1"?>
<!-- Generator: Adobe Illustrator 19.0.0, SVG Export Plug-In . SVG Version: 6.00 Build 0)  -->
<svg version="1.1" id="Capa_1" xmlns="http://www.w3.org/2000/svg" xmlns:xlink="http://www.w3.org/1999/xlink" x="0px" y="0px"
	 viewBox="0 0 512 512" style="enable-background:new 0 0 512 512;" xml:space="preserve">
<g>
	<g>
		<path d="M343.613,224.93c-1.87-1.86-4.44-2.93-7.07-2.93c-2.641,0-5.21,1.069-7.07,2.93c-1.87,1.86-2.93,4.44-2.93,7.07
			s1.06,5.21,2.93,7.069c1.86,1.861,4.429,2.931,7.07,2.931c2.63,0,5.21-1.07,7.07-2.931c1.859-1.859,2.93-4.439,2.93-7.069
			S345.473,226.79,343.613,224.93z" fill="#fff"/>
	</g>
</g>
<g>
	<g>
		<path d="M189.374,122.333H133.96c-13.325,0-24.166-10.841-24.166-24.166C109.794,84.841,120.635,74,133.96,74
			c5.522,0,10-4.478,10-10c0-5.522-4.478-10-10-10c-24.354,0-44.166,19.813-44.166,44.167s19.813,44.166,44.166,44.166h55.414
			c5.522,0,10-4.478,10-10C199.374,126.811,194.896,122.333,189.374,122.333z" fill="#fff"/>
	</g>
</g>
<g>
	<g>
		<path d="M378.04,142.333c24.354,0,44.166-19.813,44.166-44.166c0-5.522-4.478-10-10-10c-5.522,0-10,4.478-10,10
			c0,13.325-10.841,24.166-24.166,24.166h-76.167V46c0-25.364-20.636-46-46-46s-46,20.636-46,46v119.747h-30
			c-36.393,0-66,29.607-66,66v105.627c0,32.475,13.886,63.513,38.096,85.155l97.239,86.926c1.898,1.696,4.281,2.545,6.665,2.545
			s4.767-0.849,6.665-2.545l97.239-86.926c24.21-21.643,38.096-52.681,38.096-85.155V231.747c0-36.393-29.607-66-66-66h-30v-23.414
			H378.04z M229.873,46c0-14.337,11.663-26,26-26c14.337,0,26,11.663,26,26v76.333H268.87c-5.522,0-10,4.478-10,10
			c0,5.522,4.478,10,10,10h13.003v23.414h-52V46z M331.873,185.747c25.364,0,46,20.636,46,46v105.627
			c0,10.884-1.891,21.573-5.476,31.626H242.873c-5.522,0-10,4.478-10,10c0,5.522,4.478,10,10,10h119.586
			c-4.463,6.819-9.829,13.091-16.012,18.619l-90.574,80.968l-90.574-80.968c-19.972-17.854-31.426-43.457-31.426-70.245V242H299.54
			c5.522,0,10-4.478,10-10c0-5.522-4.478-10-10-10H134.922c4.484-20.697,22.931-36.253,44.951-36.253h40h72H331.873z" fill="#fff"/>
	</g>
</g>
<g>
	<g>
		<path d="M205.333,371.93c-1.86-1.861-4.44-2.93-7.07-2.93s-5.21,1.069-7.07,2.93c-1.859,1.86-2.93,4.44-2.93,7.07
			s1.07,5.21,2.93,7.069c1.86,1.86,4.44,2.931,7.07,2.931s5.21-1.07,7.07-2.931c1.859-1.859,2.93-4.439,2.93-7.069
			S207.193,373.79,205.333,371.93z" fill="#fff"/>
	</g>
</g>
<g>
</g>
<g>
</g>
<g>
</g>
<g>
</g>
<g>
</g>
<g>
</g>
<g>
</g>
<g>
</g>
<g>
</g>
<g>
</g>
<g>
</g>
<g>
</g>
<g>
</g>
<g>
</g>
<g>
</g>
</svg>
